<mxfile host="app.diagrams.net" agent="Mozilla/5.0 (Windows NT 10.0; Win64; x64) AppleWebKit/537.36 (KHTML, like Gecko) Chrome/126.0.0.0 Safari/537.36" version="24.7.4">
  <diagram name="Page-1" id="WgMibuZ7lyxVTRK7wOBl">
    <mxGraphModel dx="1500" dy="3134" grid="1" gridSize="10" guides="1" tooltips="1" connect="1" arrows="1" fold="1" page="1" pageScale="1" pageWidth="827" pageHeight="1169" math="0" shadow="0">
      <root>
        <mxCell id="0" />
        <mxCell id="1" parent="0" />
        <mxCell id="maiO7BvK5R5JNUqTLznV-1" value="Actor" style="shape=umlActor;verticalLabelPosition=bottom;verticalAlign=top;html=1;outlineConnect=0;labelBackgroundColor=none;fillColor=#09555B;strokeColor=#BAC8D3;fontColor=#EEEEEE;rounded=1;" parent="1" vertex="1">
          <mxGeometry x="170" y="-1120" width="30" height="60" as="geometry" />
        </mxCell>
        <mxCell id="maiO7BvK5R5JNUqTLznV-3" value="" style="endArrow=none;html=1;rounded=1;labelBackgroundColor=none;fontColor=default;strokeColor=#0B4D6A;" parent="1" edge="1">
          <mxGeometry width="50" height="50" relative="1" as="geometry">
            <mxPoint x="184.5" y="-930" as="sourcePoint" />
            <mxPoint x="184.5" y="-1030" as="targetPoint" />
          </mxGeometry>
        </mxCell>
        <mxCell id="maiO7BvK5R5JNUqTLznV-4" value="Req to register" style="whiteSpace=wrap;html=1;aspect=fixed;labelBackgroundColor=none;fillColor=#09555B;strokeColor=#BAC8D3;fontColor=#EEEEEE;rounded=1;" parent="1" vertex="1">
          <mxGeometry x="145" y="-920" width="80" height="80" as="geometry" />
        </mxCell>
        <mxCell id="maiO7BvK5R5JNUqTLznV-5" value="" style="endArrow=none;html=1;rounded=1;labelBackgroundColor=none;fontColor=default;strokeColor=#0B4D6A;" parent="1" edge="1">
          <mxGeometry width="50" height="50" relative="1" as="geometry">
            <mxPoint x="180" y="-750" as="sourcePoint" />
            <mxPoint x="180" y="-830" as="targetPoint" />
          </mxGeometry>
        </mxCell>
        <mxCell id="maiO7BvK5R5JNUqTLznV-8" value="Verify" style="rhombus;whiteSpace=wrap;html=1;labelBackgroundColor=none;fillColor=#09555B;strokeColor=#BAC8D3;fontColor=#EEEEEE;rounded=1;" parent="1" vertex="1">
          <mxGeometry x="140" y="-750" width="80" height="80" as="geometry" />
        </mxCell>
        <mxCell id="maiO7BvK5R5JNUqTLznV-10" value="Reject" style="whiteSpace=wrap;html=1;aspect=fixed;labelBackgroundColor=none;fillColor=#09555B;strokeColor=#BAC8D3;fontColor=#EEEEEE;rounded=1;" parent="1" vertex="1">
          <mxGeometry x="310" y="-750" width="80" height="80" as="geometry" />
        </mxCell>
        <mxCell id="maiO7BvK5R5JNUqTLznV-11" value="" style="endArrow=none;html=1;rounded=1;entryX=0;entryY=0.5;entryDx=0;entryDy=0;labelBackgroundColor=none;fontColor=default;strokeColor=#0B4D6A;" parent="1" target="maiO7BvK5R5JNUqTLznV-10" edge="1">
          <mxGeometry width="50" height="50" relative="1" as="geometry">
            <mxPoint x="225" y="-710.59" as="sourcePoint" />
            <mxPoint x="285" y="-710.59" as="targetPoint" />
          </mxGeometry>
        </mxCell>
        <mxCell id="maiO7BvK5R5JNUqTLznV-12" value="False" style="text;html=1;align=center;verticalAlign=middle;resizable=0;points=[];autosize=1;strokeColor=#6c8ebf;fillColor=#dae8fc;labelBackgroundColor=none;rounded=1;" parent="1" vertex="1">
          <mxGeometry x="235" y="-750" width="50" height="30" as="geometry" />
        </mxCell>
        <mxCell id="maiO7BvK5R5JNUqTLznV-13" value="" style="endArrow=none;html=1;rounded=1;entryX=0.5;entryY=1;entryDx=0;entryDy=0;labelBackgroundColor=none;fontColor=default;strokeColor=#0B4D6A;" parent="1" edge="1">
          <mxGeometry width="50" height="50" relative="1" as="geometry">
            <mxPoint x="179" y="-600" as="sourcePoint" />
            <mxPoint x="179.41" y="-670" as="targetPoint" />
          </mxGeometry>
        </mxCell>
        <mxCell id="maiO7BvK5R5JNUqTLznV-15" value="True" style="text;html=1;align=center;verticalAlign=middle;resizable=0;points=[];autosize=1;strokeColor=#6c8ebf;fillColor=#dae8fc;labelBackgroundColor=none;rounded=1;" parent="1" vertex="1">
          <mxGeometry x="110" y="-650" width="50" height="30" as="geometry" />
        </mxCell>
        <mxCell id="maiO7BvK5R5JNUqTLznV-16" value="User" style="text;html=1;align=center;verticalAlign=middle;resizable=0;points=[];autosize=1;strokeColor=none;fillColor=none;labelBackgroundColor=none;fontColor=#EEEEEE;rounded=1;" parent="1" vertex="1">
          <mxGeometry x="160" y="-1170" width="50" height="30" as="geometry" />
        </mxCell>
        <mxCell id="maiO7BvK5R5JNUqTLznV-18" value="Base user created&lt;br&gt;&lt;br&gt;Role = 0" style="whiteSpace=wrap;html=1;aspect=fixed;labelBackgroundColor=none;fillColor=#09555B;strokeColor=#BAC8D3;fontColor=#EEEEEE;rounded=1;" parent="1" vertex="1">
          <mxGeometry x="110" y="-600" width="140" height="140" as="geometry" />
        </mxCell>
        <mxCell id="maiO7BvK5R5JNUqTLznV-21" style="edgeStyle=orthogonalEdgeStyle;rounded=1;orthogonalLoop=1;jettySize=auto;html=1;labelBackgroundColor=none;fontColor=default;strokeColor=#0B4D6A;" parent="1" source="maiO7BvK5R5JNUqTLznV-19" edge="1">
          <mxGeometry relative="1" as="geometry">
            <mxPoint x="320" y="-310" as="targetPoint" />
          </mxGeometry>
        </mxCell>
        <mxCell id="maiO7BvK5R5JNUqTLznV-26" style="edgeStyle=orthogonalEdgeStyle;rounded=1;orthogonalLoop=1;jettySize=auto;html=1;labelBackgroundColor=none;fontColor=default;strokeColor=#0B4D6A;" parent="1" source="maiO7BvK5R5JNUqTLznV-19" edge="1">
          <mxGeometry relative="1" as="geometry">
            <mxPoint x="170" y="-140" as="targetPoint" />
          </mxGeometry>
        </mxCell>
        <mxCell id="maiO7BvK5R5JNUqTLznV-19" value="Upgrade profile" style="rhombus;whiteSpace=wrap;html=1;labelBackgroundColor=none;fillColor=#09555B;strokeColor=#BAC8D3;fontColor=#EEEEEE;rounded=1;" parent="1" vertex="1">
          <mxGeometry x="120" y="-360" width="100" height="100" as="geometry" />
        </mxCell>
        <mxCell id="maiO7BvK5R5JNUqTLznV-20" value="" style="edgeStyle=none;orthogonalLoop=1;jettySize=auto;html=1;rounded=1;exitX=0.423;exitY=0.992;exitDx=0;exitDy=0;exitPerimeter=0;labelBackgroundColor=none;fontColor=default;strokeColor=#0B4D6A;" parent="1" source="maiO7BvK5R5JNUqTLznV-18" edge="1">
          <mxGeometry width="100" relative="1" as="geometry">
            <mxPoint x="125" y="-420" as="sourcePoint" />
            <mxPoint x="169" y="-360" as="targetPoint" />
            <Array as="points" />
          </mxGeometry>
        </mxCell>
        <mxCell id="maiO7BvK5R5JNUqTLznV-24" value="Cant use app features" style="whiteSpace=wrap;html=1;labelBackgroundColor=none;fillColor=#09555B;strokeColor=#BAC8D3;fontColor=#EEEEEE;rounded=1;" parent="1" vertex="1">
          <mxGeometry x="320" y="-360" width="170" height="100" as="geometry" />
        </mxCell>
        <mxCell id="maiO7BvK5R5JNUqTLznV-25" value="False" style="text;html=1;align=center;verticalAlign=middle;resizable=0;points=[];autosize=1;strokeColor=#6c8ebf;fillColor=#dae8fc;labelBackgroundColor=none;rounded=1;" parent="1" vertex="1">
          <mxGeometry x="235" y="-352" width="50" height="30" as="geometry" />
        </mxCell>
        <mxCell id="maiO7BvK5R5JNUqTLznV-28" value="Regulre user&lt;br&gt;&lt;br&gt;Role = 1" style="whiteSpace=wrap;html=1;labelBackgroundColor=none;fillColor=#09555B;strokeColor=#BAC8D3;fontColor=#EEEEEE;rounded=1;" parent="1" vertex="1">
          <mxGeometry x="85" y="-140" width="170" height="120" as="geometry" />
        </mxCell>
        <mxCell id="maiO7BvK5R5JNUqTLznV-29" value="True" style="text;html=1;align=center;verticalAlign=middle;resizable=0;points=[];autosize=1;strokeColor=#6c8ebf;fillColor=#dae8fc;labelBackgroundColor=none;rounded=1;" parent="1" vertex="1">
          <mxGeometry x="125" y="-222" width="50" height="30" as="geometry" />
        </mxCell>
        <mxCell id="maiO7BvK5R5JNUqTLznV-31" value="&lt;h2 style=&quot;font-size: 29px;&quot;&gt;فرآیند ثبت نام کاربر و آپدیت پروفایل&lt;/h2&gt;" style="text;html=1;align=center;verticalAlign=middle;resizable=0;points=[];autosize=1;strokeColor=#6c8ebf;fillColor=#dae8fc;fontSize=29;labelBackgroundColor=none;rounded=1;gradientColor=#7ea6e0;" parent="1" vertex="1">
          <mxGeometry x="350" y="-1140" width="370" height="100" as="geometry" />
        </mxCell>
        <mxCell id="maiO7BvK5R5JNUqTLznV-35" style="edgeStyle=orthogonalEdgeStyle;rounded=1;orthogonalLoop=1;jettySize=auto;html=1;labelBackgroundColor=none;fontColor=default;strokeColor=#0B4D6A;" parent="1" source="maiO7BvK5R5JNUqTLznV-32" target="maiO7BvK5R5JNUqTLznV-36" edge="1">
          <mxGeometry relative="1" as="geometry">
            <mxPoint x="155" y="240" as="targetPoint" />
          </mxGeometry>
        </mxCell>
        <mxCell id="maiO7BvK5R5JNUqTLznV-32" value="Actor" style="shape=umlActor;verticalLabelPosition=bottom;verticalAlign=top;html=1;outlineConnect=0;labelBackgroundColor=none;fillColor=#09555B;strokeColor=#BAC8D3;fontColor=#EEEEEE;rounded=1;" parent="1" vertex="1">
          <mxGeometry x="140" y="60" width="30" height="60" as="geometry" />
        </mxCell>
        <mxCell id="maiO7BvK5R5JNUqTLznV-34" value="Base user" style="text;html=1;align=center;verticalAlign=middle;resizable=0;points=[];autosize=1;strokeColor=#6c8ebf;fillColor=#dae8fc;labelBackgroundColor=none;rounded=1;" parent="1" vertex="1">
          <mxGeometry x="120" y="10" width="80" height="30" as="geometry" />
        </mxCell>
        <mxCell id="maiO7BvK5R5JNUqTLznV-37" style="edgeStyle=orthogonalEdgeStyle;rounded=1;orthogonalLoop=1;jettySize=auto;html=1;labelBackgroundColor=none;fontColor=default;strokeColor=#0B4D6A;" parent="1" source="maiO7BvK5R5JNUqTLznV-36" target="maiO7BvK5R5JNUqTLznV-38" edge="1">
          <mxGeometry relative="1" as="geometry">
            <mxPoint x="160" y="430" as="targetPoint" />
          </mxGeometry>
        </mxCell>
        <mxCell id="maiO7BvK5R5JNUqTLznV-36" value="Req to becoming leader&lt;div&gt;&lt;br/&gt;&lt;/div&gt;" style="rounded=1;whiteSpace=wrap;html=1;fontSize=14;labelBackgroundColor=none;fillColor=#09555B;strokeColor=#BAC8D3;fontColor=#EEEEEE;" parent="1" vertex="1">
          <mxGeometry x="87.5" y="220" width="145" height="90" as="geometry" />
        </mxCell>
        <mxCell id="maiO7BvK5R5JNUqTLznV-40" value="" style="edgeStyle=orthogonalEdgeStyle;rounded=1;orthogonalLoop=1;jettySize=auto;html=1;labelBackgroundColor=none;fontColor=default;strokeColor=#0B4D6A;" parent="1" source="maiO7BvK5R5JNUqTLznV-38" target="maiO7BvK5R5JNUqTLznV-39" edge="1">
          <mxGeometry relative="1" as="geometry" />
        </mxCell>
        <mxCell id="maiO7BvK5R5JNUqTLznV-42" style="edgeStyle=orthogonalEdgeStyle;rounded=1;orthogonalLoop=1;jettySize=auto;html=1;exitX=0.5;exitY=1;exitDx=0;exitDy=0;labelBackgroundColor=none;fontColor=default;strokeColor=#0B4D6A;" parent="1" source="maiO7BvK5R5JNUqTLznV-38" edge="1">
          <mxGeometry relative="1" as="geometry">
            <mxPoint x="160.26315789473688" y="780" as="targetPoint" />
          </mxGeometry>
        </mxCell>
        <mxCell id="maiO7BvK5R5JNUqTLznV-38" value="Upload licence&lt;div&gt;Rple = 2&lt;/div&gt;" style="rhombus;whiteSpace=wrap;html=1;labelBackgroundColor=none;fillColor=#09555B;strokeColor=#BAC8D3;fontColor=#EEEEEE;rounded=1;" parent="1" vertex="1">
          <mxGeometry x="75" y="410" width="170" height="230" as="geometry" />
        </mxCell>
        <mxCell id="maiO7BvK5R5JNUqTLznV-39" value="Rejected by admin" style="whiteSpace=wrap;html=1;labelBackgroundColor=none;fillColor=#09555B;strokeColor=#BAC8D3;fontColor=#EEEEEE;rounded=1;" parent="1" vertex="1">
          <mxGeometry x="350" y="495" width="120" height="60" as="geometry" />
        </mxCell>
        <mxCell id="maiO7BvK5R5JNUqTLznV-41" value="False" style="text;html=1;align=center;verticalAlign=middle;resizable=0;points=[];autosize=1;strokeColor=#6c8ebf;fillColor=#dae8fc;labelBackgroundColor=none;rounded=1;" parent="1" vertex="1">
          <mxGeometry x="265" y="488" width="50" height="30" as="geometry" />
        </mxCell>
        <mxCell id="maiO7BvK5R5JNUqTLznV-43" value="True" style="text;html=1;align=center;verticalAlign=middle;resizable=0;points=[];autosize=1;strokeColor=#6c8ebf;fillColor=#dae8fc;labelBackgroundColor=none;rounded=1;" parent="1" vertex="1">
          <mxGeometry x="85" y="688" width="50" height="30" as="geometry" />
        </mxCell>
        <mxCell id="maiO7BvK5R5JNUqTLznV-45" style="edgeStyle=orthogonalEdgeStyle;rounded=1;orthogonalLoop=1;jettySize=auto;html=1;labelBackgroundColor=none;fontColor=default;strokeColor=#0B4D6A;" parent="1" source="maiO7BvK5R5JNUqTLznV-44" edge="1">
          <mxGeometry relative="1" as="geometry">
            <mxPoint x="160" y="1030" as="targetPoint" />
          </mxGeometry>
        </mxCell>
        <mxCell id="maiO7BvK5R5JNUqTLznV-44" value="Approved by admin" style="whiteSpace=wrap;html=1;aspect=fixed;labelBackgroundColor=none;fillColor=#09555B;strokeColor=#BAC8D3;fontColor=#EEEEEE;rounded=1;" parent="1" vertex="1">
          <mxGeometry x="80" y="780" width="160" height="160" as="geometry" />
        </mxCell>
        <mxCell id="maiO7BvK5R5JNUqTLznV-47" value="Role = 3" style="whiteSpace=wrap;html=1;labelBackgroundColor=none;fillColor=#09555B;strokeColor=#BAC8D3;fontColor=#EEEEEE;rounded=1;" parent="1" vertex="1">
          <mxGeometry x="97.5" y="1030" width="120" height="60" as="geometry" />
        </mxCell>
        <mxCell id="maiO7BvK5R5JNUqTLznV-49" style="edgeStyle=orthogonalEdgeStyle;rounded=1;orthogonalLoop=1;jettySize=auto;html=1;labelBackgroundColor=none;fontColor=default;strokeColor=#0B4D6A;" parent="1" source="maiO7BvK5R5JNUqTLznV-48" edge="1">
          <mxGeometry relative="1" as="geometry">
            <mxPoint x="125" y="1370" as="targetPoint" />
          </mxGeometry>
        </mxCell>
        <mxCell id="maiO7BvK5R5JNUqTLznV-48" value="Actor" style="shape=umlActor;verticalLabelPosition=bottom;verticalAlign=top;html=1;outlineConnect=0;labelBackgroundColor=none;fillColor=#09555B;strokeColor=#BAC8D3;fontColor=#EEEEEE;rounded=1;" parent="1" vertex="1">
          <mxGeometry x="110" y="1230" width="30" height="60" as="geometry" />
        </mxCell>
        <mxCell id="maiO7BvK5R5JNUqTLznV-55" value="" style="edgeStyle=orthogonalEdgeStyle;rounded=1;orthogonalLoop=1;jettySize=auto;html=1;labelBackgroundColor=none;fontColor=default;strokeColor=#0B4D6A;" parent="1" source="maiO7BvK5R5JNUqTLznV-53" target="maiO7BvK5R5JNUqTLznV-54" edge="1">
          <mxGeometry relative="1" as="geometry" />
        </mxCell>
        <mxCell id="maiO7BvK5R5JNUqTLznV-53" value="Leader created signal" style="whiteSpace=wrap;html=1;aspect=fixed;labelBackgroundColor=none;fillColor=#09555B;strokeColor=#BAC8D3;fontColor=#EEEEEE;rounded=1;" parent="1" vertex="1">
          <mxGeometry x="75" y="1380" width="110" height="110" as="geometry" />
        </mxCell>
        <mxCell id="maiO7BvK5R5JNUqTLznV-87" value="" style="edgeStyle=orthogonalEdgeStyle;rounded=1;orthogonalLoop=1;jettySize=auto;html=1;labelBackgroundColor=none;strokeColor=#0B4D6A;fontColor=default;" parent="1" source="maiO7BvK5R5JNUqTLznV-54" target="maiO7BvK5R5JNUqTLznV-86" edge="1">
          <mxGeometry relative="1" as="geometry" />
        </mxCell>
        <mxCell id="maiO7BvK5R5JNUqTLznV-91" value="" style="edgeStyle=orthogonalEdgeStyle;rounded=1;orthogonalLoop=1;jettySize=auto;html=1;labelBackgroundColor=none;strokeColor=#0B4D6A;fontColor=default;" parent="1" source="maiO7BvK5R5JNUqTLznV-54" target="maiO7BvK5R5JNUqTLznV-90" edge="1">
          <mxGeometry relative="1" as="geometry" />
        </mxCell>
        <mxCell id="maiO7BvK5R5JNUqTLznV-54" value="If signals take profit&lt;div&gt;&lt;br&gt;&lt;/div&gt;" style="rhombus;whiteSpace=wrap;html=1;labelBackgroundColor=none;fillColor=#09555B;strokeColor=#BAC8D3;fontColor=#EEEEEE;rounded=1;" parent="1" vertex="1">
          <mxGeometry x="47.5" y="1630" width="165" height="145" as="geometry" />
        </mxCell>
        <mxCell id="maiO7BvK5R5JNUqTLznV-66" value="" style="edgeStyle=orthogonalEdgeStyle;rounded=1;orthogonalLoop=1;jettySize=auto;html=1;labelBackgroundColor=none;fontColor=default;strokeColor=#0B4D6A;" parent="1" source="maiO7BvK5R5JNUqTLznV-60" target="maiO7BvK5R5JNUqTLznV-65" edge="1">
          <mxGeometry relative="1" as="geometry" />
        </mxCell>
        <mxCell id="maiO7BvK5R5JNUqTLznV-70" value="" style="edgeStyle=orthogonalEdgeStyle;rounded=1;orthogonalLoop=1;jettySize=auto;html=1;labelBackgroundColor=none;fontColor=default;strokeColor=#0B4D6A;" parent="1" source="maiO7BvK5R5JNUqTLznV-60" target="maiO7BvK5R5JNUqTLznV-69" edge="1">
          <mxGeometry relative="1" as="geometry" />
        </mxCell>
        <mxCell id="maiO7BvK5R5JNUqTLznV-60" value="&lt;div&gt;If tp signals &amp;gt;= 100&amp;nbsp;&lt;br&gt;&amp;amp;&amp;amp; tp signals &amp;lt; 200&lt;/div&gt;" style="rhombus;whiteSpace=wrap;html=1;labelBackgroundColor=none;fillColor=#09555B;strokeColor=#BAC8D3;fontColor=#EEEEEE;rounded=1;" parent="1" vertex="1">
          <mxGeometry x="75" y="2020" width="165" height="145" as="geometry" />
        </mxCell>
        <mxCell id="maiO7BvK5R5JNUqTLznV-62" value="True" style="text;html=1;align=center;verticalAlign=middle;resizable=0;points=[];autosize=1;strokeColor=#6c8ebf;fillColor=#dae8fc;labelBackgroundColor=none;rounded=1;" parent="1" vertex="1">
          <mxGeometry x="75" y="1800" width="50" height="30" as="geometry" />
        </mxCell>
        <mxCell id="maiO7BvK5R5JNUqTLznV-64" value="False" style="text;html=1;align=center;verticalAlign=middle;resizable=0;points=[];autosize=1;strokeColor=#6c8ebf;fillColor=#dae8fc;labelBackgroundColor=none;rounded=1;" parent="1" vertex="1">
          <mxGeometry x="300" y="2045" width="50" height="30" as="geometry" />
        </mxCell>
        <mxCell id="maiO7BvK5R5JNUqTLznV-65" value="Level up to silver" style="whiteSpace=wrap;html=1;labelBackgroundColor=none;fillColor=#09555B;strokeColor=#BAC8D3;fontColor=#EEEEEE;rounded=1;" parent="1" vertex="1">
          <mxGeometry x="97.5" y="2287.5" width="120" height="60" as="geometry" />
        </mxCell>
        <mxCell id="maiO7BvK5R5JNUqTLznV-67" value="True" style="text;html=1;align=center;verticalAlign=middle;resizable=0;points=[];autosize=1;strokeColor=#6c8ebf;fillColor=#dae8fc;labelBackgroundColor=none;rounded=1;" parent="1" vertex="1">
          <mxGeometry x="92.5" y="2213" width="50" height="30" as="geometry" />
        </mxCell>
        <mxCell id="maiO7BvK5R5JNUqTLznV-68" value="&lt;h1 style=&quot;margin-top: 0px;&quot;&gt;Default level&lt;/h1&gt;&lt;p&gt;Default level is bronze . that leader points is under&amp;nbsp; the 100.&lt;/p&gt;" style="text;html=1;whiteSpace=wrap;overflow=hidden;rounded=1;labelBackgroundColor=none;fillColor=#dae8fc;gradientColor=#7ea6e0;strokeColor=#6c8ebf;" parent="1" vertex="1">
          <mxGeometry x="220" y="1240" width="180" height="120" as="geometry" />
        </mxCell>
        <mxCell id="maiO7BvK5R5JNUqTLznV-72" value="" style="edgeStyle=orthogonalEdgeStyle;rounded=1;orthogonalLoop=1;jettySize=auto;html=1;labelBackgroundColor=none;fontColor=default;strokeColor=#0B4D6A;" parent="1" source="maiO7BvK5R5JNUqTLznV-69" target="maiO7BvK5R5JNUqTLznV-71" edge="1">
          <mxGeometry relative="1" as="geometry" />
        </mxCell>
        <mxCell id="maiO7BvK5R5JNUqTLznV-74" value="" style="edgeStyle=orthogonalEdgeStyle;rounded=1;orthogonalLoop=1;jettySize=auto;html=1;labelBackgroundColor=none;fontColor=default;strokeColor=#0B4D6A;" parent="1" source="maiO7BvK5R5JNUqTLznV-69" target="maiO7BvK5R5JNUqTLznV-73" edge="1">
          <mxGeometry relative="1" as="geometry" />
        </mxCell>
        <mxCell id="maiO7BvK5R5JNUqTLznV-69" value="&lt;div&gt;If tp signals &amp;gt;= 200&lt;br&gt;&amp;amp;&amp;amp; tp signals &amp;lt; 300&lt;/div&gt;" style="rhombus;whiteSpace=wrap;html=1;labelBackgroundColor=none;fillColor=#09555B;strokeColor=#BAC8D3;fontColor=#EEEEEE;rounded=1;" parent="1" vertex="1">
          <mxGeometry x="372.5" y="2020" width="165" height="145" as="geometry" />
        </mxCell>
        <mxCell id="maiO7BvK5R5JNUqTLznV-71" value="Level up to gold" style="whiteSpace=wrap;html=1;labelBackgroundColor=none;fillColor=#09555B;strokeColor=#BAC8D3;fontColor=#EEEEEE;rounded=1;" parent="1" vertex="1">
          <mxGeometry x="397.5" y="2275" width="120" height="60" as="geometry" />
        </mxCell>
        <mxCell id="maiO7BvK5R5JNUqTLznV-76" value="" style="edgeStyle=orthogonalEdgeStyle;rounded=1;orthogonalLoop=1;jettySize=auto;html=1;labelBackgroundColor=none;fontColor=default;strokeColor=#0B4D6A;" parent="1" source="maiO7BvK5R5JNUqTLznV-73" target="maiO7BvK5R5JNUqTLznV-75" edge="1">
          <mxGeometry relative="1" as="geometry" />
        </mxCell>
        <mxCell id="maiO7BvK5R5JNUqTLznV-78" value="" style="edgeStyle=orthogonalEdgeStyle;rounded=1;orthogonalLoop=1;jettySize=auto;html=1;labelBackgroundColor=none;fontColor=default;strokeColor=#0B4D6A;" parent="1" source="maiO7BvK5R5JNUqTLznV-73" target="maiO7BvK5R5JNUqTLznV-77" edge="1">
          <mxGeometry relative="1" as="geometry" />
        </mxCell>
        <mxCell id="maiO7BvK5R5JNUqTLznV-73" value="&lt;div&gt;If tp signals &amp;gt;= 300&lt;br&gt;&amp;amp;&amp;amp; tp signals &amp;lt; 400&lt;/div&gt;" style="rhombus;whiteSpace=wrap;html=1;labelBackgroundColor=none;fillColor=#09555B;strokeColor=#BAC8D3;fontColor=#EEEEEE;rounded=1;" parent="1" vertex="1">
          <mxGeometry x="697.5" y="2020" width="165" height="145" as="geometry" />
        </mxCell>
        <mxCell id="maiO7BvK5R5JNUqTLznV-75" value="Level up to platinium" style="whiteSpace=wrap;html=1;labelBackgroundColor=none;fillColor=#09555B;strokeColor=#BAC8D3;fontColor=#EEEEEE;rounded=1;" parent="1" vertex="1">
          <mxGeometry x="720" y="2287.5" width="120" height="60" as="geometry" />
        </mxCell>
        <mxCell id="maiO7BvK5R5JNUqTLznV-82" value="" style="edgeStyle=orthogonalEdgeStyle;rounded=1;orthogonalLoop=1;jettySize=auto;html=1;labelBackgroundColor=none;fontColor=default;strokeColor=#0B4D6A;" parent="1" source="maiO7BvK5R5JNUqTLznV-77" target="maiO7BvK5R5JNUqTLznV-81" edge="1">
          <mxGeometry relative="1" as="geometry" />
        </mxCell>
        <mxCell id="maiO7BvK5R5JNUqTLznV-77" value="If tp signals &amp;gt;= 400&lt;div&gt;&lt;br/&gt;&lt;/div&gt;" style="rhombus;whiteSpace=wrap;html=1;labelBackgroundColor=none;fillColor=#09555B;strokeColor=#BAC8D3;fontColor=#EEEEEE;rounded=1;" parent="1" vertex="1">
          <mxGeometry x="942.5" y="2020" width="165" height="145" as="geometry" />
        </mxCell>
        <mxCell id="maiO7BvK5R5JNUqTLznV-79" value="False" style="text;html=1;align=center;verticalAlign=middle;resizable=0;points=[];autosize=1;strokeColor=#6c8ebf;fillColor=#dae8fc;labelBackgroundColor=none;rounded=1;" parent="1" vertex="1">
          <mxGeometry x="622.5" y="2063" width="50" height="30" as="geometry" />
        </mxCell>
        <mxCell id="maiO7BvK5R5JNUqTLznV-80" value="False" style="text;html=1;align=center;verticalAlign=middle;resizable=0;points=[];autosize=1;strokeColor=#6c8ebf;fillColor=#dae8fc;labelBackgroundColor=none;rounded=1;" parent="1" vertex="1">
          <mxGeometry x="882.5" y="2053" width="50" height="30" as="geometry" />
        </mxCell>
        <mxCell id="maiO7BvK5R5JNUqTLznV-81" value="Geting MASTER" style="whiteSpace=wrap;html=1;labelBackgroundColor=none;fillColor=#09555B;strokeColor=#BAC8D3;fontColor=#EEEEEE;rounded=1;" parent="1" vertex="1">
          <mxGeometry x="965" y="2287.5" width="120" height="60" as="geometry" />
        </mxCell>
        <mxCell id="maiO7BvK5R5JNUqTLznV-83" value="Level login" style="text;html=1;align=center;verticalAlign=middle;resizable=0;points=[];autosize=1;strokeColor=none;fillColor=none;fontSize=40;labelBackgroundColor=none;fontColor=#EEEEEE;rounded=1;" parent="1" vertex="1">
          <mxGeometry x="1295" y="1243" width="210" height="60" as="geometry" />
        </mxCell>
        <mxCell id="maiO7BvK5R5JNUqTLznV-88" style="edgeStyle=orthogonalEdgeStyle;rounded=1;orthogonalLoop=1;jettySize=auto;html=1;entryX=0.5;entryY=0;entryDx=0;entryDy=0;labelBackgroundColor=none;strokeColor=#0B4D6A;fontColor=default;" parent="1" source="maiO7BvK5R5JNUqTLznV-86" target="maiO7BvK5R5JNUqTLznV-60" edge="1">
          <mxGeometry relative="1" as="geometry" />
        </mxCell>
        <mxCell id="maiO7BvK5R5JNUqTLznV-86" value="Leader points +1" style="whiteSpace=wrap;html=1;labelBackgroundColor=none;fillColor=#09555B;strokeColor=#BAC8D3;fontColor=#EEEEEE;rounded=1;" parent="1" vertex="1">
          <mxGeometry x="70" y="1850" width="120" height="60" as="geometry" />
        </mxCell>
        <mxCell id="maiO7BvK5R5JNUqTLznV-94" style="edgeStyle=orthogonalEdgeStyle;rounded=1;orthogonalLoop=1;jettySize=auto;html=1;exitX=0.5;exitY=0;exitDx=0;exitDy=0;entryX=1;entryY=0.25;entryDx=0;entryDy=0;labelBackgroundColor=none;strokeColor=#0B4D6A;fontColor=default;" parent="1" source="maiO7BvK5R5JNUqTLznV-90" target="maiO7BvK5R5JNUqTLznV-53" edge="1">
          <mxGeometry relative="1" as="geometry" />
        </mxCell>
        <mxCell id="maiO7BvK5R5JNUqTLznV-96" value="" style="edgeStyle=orthogonalEdgeStyle;rounded=1;orthogonalLoop=1;jettySize=auto;html=1;labelBackgroundColor=none;strokeColor=#0B4D6A;fontColor=default;" parent="1" source="maiO7BvK5R5JNUqTLznV-90" target="maiO7BvK5R5JNUqTLznV-95" edge="1">
          <mxGeometry relative="1" as="geometry" />
        </mxCell>
        <mxCell id="maiO7BvK5R5JNUqTLznV-90" value="If signal stop&amp;nbsp;" style="rhombus;whiteSpace=wrap;html=1;labelBackgroundColor=none;fillColor=#09555B;strokeColor=#BAC8D3;fontColor=#EEEEEE;rounded=1;" parent="1" vertex="1">
          <mxGeometry x="425" y="1630" width="165" height="145" as="geometry" />
        </mxCell>
        <mxCell id="maiO7BvK5R5JNUqTLznV-95" value="Leader points -1" style="whiteSpace=wrap;html=1;labelBackgroundColor=none;fillColor=#09555B;strokeColor=#BAC8D3;fontColor=#EEEEEE;rounded=1;" parent="1" vertex="1">
          <mxGeometry x="800" y="1640" width="170" height="130" as="geometry" />
        </mxCell>
        <mxCell id="jUuBUTXeVEIqnsNdhHNt-1" value="False" style="text;html=1;align=center;verticalAlign=middle;resizable=0;points=[];autosize=1;strokeColor=#6c8ebf;fillColor=#dae8fc;" vertex="1" parent="1">
          <mxGeometry x="295" y="1658" width="50" height="30" as="geometry" />
        </mxCell>
        <mxCell id="jUuBUTXeVEIqnsNdhHNt-2" value="False" style="text;html=1;align=center;verticalAlign=middle;resizable=0;points=[];autosize=1;strokeColor=#6c8ebf;fillColor=#dae8fc;" vertex="1" parent="1">
          <mxGeometry x="645" y="1668" width="50" height="30" as="geometry" />
        </mxCell>
      </root>
    </mxGraphModel>
  </diagram>
</mxfile>
